<svg width="37" height="37" viewBox="0 0 37 37" fill="none" xmlns="http://www.w3.org/2000/svg">
<path d="M18.5 0.5C16.0705 0.5 13.6649 0.977143 11.4204 1.90419C9.17583 2.83123 7.13641 4.19002 5.41852 5.90297C1.9491 9.36243 0 14.0545 0 18.9469C0 27.1004 5.3095 34.018 12.654 36.4714C13.579 36.619 13.875 36.0471 13.875 35.5491V32.4316C8.7505 33.5384 7.659 29.9597 7.659 29.9597C6.808 27.8198 5.6055 27.248 5.6055 27.248C3.922 26.1043 5.735 26.1412 5.735 26.1412C7.585 26.2703 8.5655 28.0412 8.5655 28.0412C10.175 30.8451 12.8945 30.015 13.949 29.5723C14.1155 28.3732 14.5965 27.5616 15.1145 27.1004C11.0075 26.6392 6.697 25.0528 6.697 18.0245C6.697 15.9769 7.4 14.3352 8.6025 13.0254C8.4175 12.5643 7.77 10.6458 8.7875 8.15546C8.7875 8.15546 10.3415 7.65739 13.875 10.037C15.3365 9.63121 16.9275 9.42829 18.5 9.42829C20.0725 9.42829 21.6635 9.63121 23.125 10.037C26.6585 7.65739 28.2125 8.15546 28.2125 8.15546C29.23 10.6458 28.5825 12.5643 28.3975 13.0254C29.6 14.3352 30.303 15.9769 30.303 18.0245C30.303 25.0713 25.974 26.6208 21.8485 27.082C22.5145 27.6538 23.125 28.7791 23.125 30.4946V35.5491C23.125 36.0471 23.421 36.6374 24.3645 36.4714C31.709 33.9995 37 27.1004 37 18.9469C37 16.5244 36.5215 14.1256 35.5918 11.8876C34.6621 9.64949 33.2994 7.61592 31.5815 5.90297C29.8636 4.19002 27.8242 2.83123 25.5796 1.90419C23.3351 0.977143 20.9295 0.5 18.5 0.5Z" fill="url(#paint0_linear_76_10)"/>
<defs>
<linearGradient id="paint0_linear_76_10" x1="0" y1="0.5" x2="31.6777" y2="40.6946" gradientUnits="userSpaceOnUse">
<stop stop-color="white"/>
<stop offset="1" stop-color="white" stop-opacity="0"/>
</linearGradient>
</defs>
</svg>
