<svg width="45" height="45" viewBox="0 0 45 45" fill="none" xmlns="http://www.w3.org/2000/svg">
<path d="M22.5 0.5C19.5453 0.5 16.6194 1.08317 13.8896 2.21623C11.1598 3.34928 8.67942 5.01002 6.5901 7.10363C2.37053 11.3319 0 17.0666 0 23.0462C0 33.0116 6.4575 41.4664 15.39 44.4651C16.515 44.6454 16.875 43.9465 16.875 43.3378V39.5275C10.6425 40.8802 9.315 36.5063 9.315 36.5063C8.28 33.8909 6.8175 33.192 6.8175 33.192C4.77 31.7941 6.975 31.8392 6.975 31.8392C9.225 31.997 10.4175 34.1615 10.4175 34.1615C12.375 37.5885 15.6825 36.5739 16.965 36.0328C17.1675 34.5673 17.7525 33.5753 18.3825 33.0116C13.3875 32.448 8.145 30.509 8.145 21.9189C8.145 19.4163 9 17.4096 10.4625 15.8089C10.2375 15.2452 9.45 12.9004 10.6875 9.85667C10.6875 9.85667 12.5775 9.24792 16.875 12.1564C18.6525 11.6604 20.5875 11.4124 22.5 11.4124C24.4125 11.4124 26.3475 11.6604 28.125 12.1564C32.4225 9.24792 34.3125 9.85667 34.3125 9.85667C35.55 12.9004 34.7625 15.2452 34.5375 15.8089C36 17.4096 36.855 19.4163 36.855 21.9189C36.855 30.5315 31.59 32.4254 26.5725 32.9891C27.3825 33.688 28.125 35.0633 28.125 37.1601V43.3378C28.125 43.9465 28.485 44.668 29.6325 44.4651C38.565 41.4439 45 33.0116 45 23.0462C45 20.0854 44.418 17.1536 43.2873 14.4181C42.1566 11.6827 40.4992 9.19724 38.4099 7.10363C36.3206 5.01002 33.8402 3.34928 31.1104 2.21623C28.3806 1.08317 25.4547 0.5 22.5 0.5Z" fill="url(#paint0_linear_79_176)"/>
<defs>
<linearGradient id="paint0_linear_79_176" x1="0" y1="0.5" x2="38.7613" y2="49.441" gradientUnits="userSpaceOnUse">
<stop stop-color="#B5F29A"/>
<stop offset="1" stop-color="#5FC233"/>
</linearGradient>
</defs>
</svg>
