<svg width="72" height="70" viewBox="0 0 72 70" fill="none" xmlns="http://www.w3.org/2000/svg">
<rect x="1" y="0.5" width="70" height="69" rx="7.5" fill="url(#paint0_linear_79_328)" stroke="url(#paint1_linear_79_328)"/>
<path d="M19.5 17L22.4333 49.04L36 53L49.75 49.04L52.5 17H19.5ZM43.8833 43.46L36 45.8L28.1167 43.64L27.5667 38.06H31.4167L31.7833 40.76L36 41.84L40.2167 40.76L40.7667 35.36H27.3833L27.0167 31.76H41.1333L41.3167 28.16H26.8333L26.4667 24.56H45.9L44.0667 43.64L43.8833 43.46Z" fill="url(#paint2_linear_79_328)"/>
<defs>
<linearGradient id="paint0_linear_79_328" x1="0.5" y1="0" x2="83.3599" y2="19.4342" gradientUnits="userSpaceOnUse">
<stop stop-color="#2E2E2E"/>
<stop offset="0.811667" stop-color="#222222"/>
</linearGradient>
<linearGradient id="paint1_linear_79_328" x1="0.5" y1="0" x2="74.4173" y2="3.22953" gradientUnits="userSpaceOnUse">
<stop stop-color="white"/>
<stop offset="1" stop-color="white" stop-opacity="0"/>
</linearGradient>
<linearGradient id="paint2_linear_79_328" x1="19.5" y1="17" x2="51.8323" y2="53.59" gradientUnits="userSpaceOnUse">
<stop stop-color="white"/>
<stop offset="0.0001" stop-color="white"/>
<stop offset="1" stop-color="white" stop-opacity="0"/>
</linearGradient>
</defs>
</svg>
