<!-- <svg width="22" height="24" viewBox="0 0 22 24" fill="none" xmlns="http://www.w3.org/2000/svg">
  <path d="M0.310059 0.0141602L2.21053 20.7725L11.0002 23.3381L19.9086 20.7725L21.6903 0.0141602H0.310059ZM16.1077 17.1573L11.0002 18.6733L5.89269 17.2739L5.53635 13.6587H8.03071L8.26827 15.408L11.0002 16.1077L13.7321 15.408L14.0885 11.9094H5.41757L5.18001 9.57698H14.326L14.4448 7.24458H5.06123L4.82367 4.91219H17.4143L16.2265 17.2739L16.1077 17.1573Z" fill="url(#gradient)"/>
  <defs>
    <linearGradient id="gradient" x1="0" y1="0" x2="1" y2="1" gradientUnits="userSpaceOnUse">
      <stop offset="80%" stop-color="#FFA27A"/>
      <stop offset="100%" stop-color="#E5552D"/>
    </linearGradient>
  </defs>
</svg> -->






<svg width="22" height="24" viewBox="0 0 22 24" fill="none" xmlns="http://www.w3.org/2000/svg">
<path d="M0.310059 0.0141602L2.21053 20.7725L11.0002 23.3381L19.9086 20.7725L21.6903 0.0141602H0.310059ZM16.1077 17.1573L11.0002 18.6733L5.89269 17.2739L5.53635 13.6587H8.03071L8.26827 15.408L11.0002 16.1077L13.7321 15.408L14.0885 11.9094H5.41757L5.18001 9.57698H14.326L14.4448 7.24458H5.06123L4.82367 4.91219H17.4143L16.2265 17.2739L16.1077 17.1573Z" fill="url(#paint0_linear_218_231)"/>
<defs>
<linearGradient id="paint0_linear_218_231" x1="0.310059" y1="0.0141602" x2="21.2577" y2="23.7204" gradientUnits="userSpaceOnUse">
<stop stop-color="white"/>
<stop offset="0.0001" stop-color="white"/>
<stop offset="1" stop-color="white" stop-opacity="0"/>
</linearGradient>
</defs>
</svg>

