<svg width="25" height="25" viewBox="0 0 25 25" fill="none" xmlns="http://www.w3.org/2000/svg">
<g clip-path="url(#clip0_151_1231)">
<g filter="url(#filter0_b_151_1231)">
<rect width="25" height="25" fill="white" fill-opacity="0.3"/>
</g>
<path d="M18.2931 12.0779L13.0658 6.7767C12.9942 6.70407 12.9092 6.64646 12.8157 6.60715C12.7222 6.56784 12.6219 6.54761 12.5207 6.54761C12.4194 6.54761 12.3192 6.56784 12.2257 6.60715C12.1321 6.64646 12.0471 6.70407 11.9756 6.7767L10.8906 7.87717L12.2674 9.27362C12.4298 9.21739 12.6045 9.20859 12.7715 9.24823C12.9386 9.28787 13.0913 9.37435 13.2122 9.49781C13.3332 9.62126 13.4174 9.77671 13.4555 9.94641C13.4935 10.1161 13.4837 10.2932 13.4272 10.4576L14.7538 11.8039C14.9501 11.7338 15.1641 11.7336 15.3605 11.8033C15.5569 11.873 15.724 12.0085 15.8344 12.1874C15.9448 12.3663 15.9918 12.5781 15.9677 12.7877C15.9436 12.9973 15.8499 13.1924 15.7019 13.3408C15.5521 13.4937 15.3546 13.5891 15.1431 13.6107C14.9317 13.6322 14.7194 13.5787 14.5425 13.4592C14.3657 13.3397 14.2352 13.1616 14.1735 12.9553C14.1117 12.7491 14.1224 12.5275 14.2039 12.3284L12.967 11.0731V14.3767C13.155 14.4711 13.3054 14.628 13.3932 14.8213C13.481 15.0145 13.5008 15.2325 13.4494 15.4387C13.398 15.645 13.2784 15.8272 13.1106 15.9549C12.9428 16.0826 12.7369 16.1481 12.5273 16.1405C12.3177 16.1329 12.1169 16.0527 11.9585 15.9132C11.8001 15.7736 11.6937 15.5833 11.6569 15.3738C11.6201 15.1643 11.6552 14.9484 11.7564 14.762C11.8575 14.5756 12.0186 14.43 12.2128 14.3494V11.0154C12.1007 10.9688 11.9989 10.9002 11.9132 10.8136C11.8274 10.7269 11.7594 10.6239 11.7131 10.5105C11.6667 10.397 11.643 10.2754 11.6432 10.1526C11.6435 10.0298 11.6677 9.90827 11.7144 9.79501L10.3578 8.41829L6.77372 12.0536C6.70211 12.1262 6.64531 12.2124 6.60655 12.3073C6.5678 12.4021 6.54785 12.5038 6.54785 12.6065C6.54785 12.7092 6.5678 12.8109 6.60655 12.9058C6.64531 13.0006 6.70211 13.0868 6.77372 13.1594L12.001 18.4614C12.0726 18.534 12.1576 18.5916 12.2511 18.6309C12.3446 18.6702 12.4449 18.6905 12.5461 18.6905C12.6474 18.6905 12.7476 18.6702 12.8411 18.6309C12.9347 18.5916 13.0196 18.534 13.0912 18.4614L18.2938 13.1844C18.3654 13.1119 18.4222 13.0257 18.461 12.9308C18.4997 12.8359 18.5197 12.7342 18.5197 12.6316C18.5197 12.5289 18.4997 12.4272 18.461 12.3323C18.4222 12.2375 18.3654 12.1513 18.2938 12.0787" fill="white"/>
</g>
<rect x="0.5" y="0.5" width="24" height="24" rx="7.5" stroke="url(#paint0_linear_151_1231)"/>
<defs>
<filter id="filter0_b_151_1231" x="-5" y="-5" width="35" height="35" filterUnits="userSpaceOnUse" color-interpolation-filters="sRGB">
<feFlood flood-opacity="0" result="BackgroundImageFix"/>
<feGaussianBlur in="BackgroundImageFix" stdDeviation="2.5"/>
<feComposite in2="SourceAlpha" operator="in" result="effect1_backgroundBlur_151_1231"/>
<feBlend mode="normal" in="SourceGraphic" in2="effect1_backgroundBlur_151_1231" result="shape"/>
</filter>
<linearGradient id="paint0_linear_151_1231" x1="0" y1="0" x2="22.1318" y2="27.3232" gradientUnits="userSpaceOnUse">
<stop stop-color="white"/>
<stop offset="0.0001" stop-color="white"/>
<stop offset="1" stop-color="white" stop-opacity="0"/>
</linearGradient>
<clipPath id="clip0_151_1231">
<rect width="25" height="25" rx="8" fill="white"/>
</clipPath>
</defs>
</svg>
