<svg width="44" height="43" viewBox="0 0 44 43" fill="none" xmlns="http://www.w3.org/2000/svg">
<rect x="0.5" y="0.5" width="43" height="42" rx="21" fill="url(#paint0_linear_107_1543)" stroke="url(#paint1_linear_107_1543)"/>
<path d="M22 10C20.4241 10 18.8637 10.3048 17.4078 10.8971C15.9519 11.4894 14.629 12.3575 13.5147 13.4519C11.2643 15.6621 10 18.6598 10 21.7855C10 26.9947 13.444 31.4143 18.208 32.9817C18.808 33.076 19 32.7107 19 32.3925V30.4007C15.676 31.1078 14.968 28.8215 14.968 28.8215C14.416 27.4543 13.636 27.089 13.636 27.089C12.544 26.3583 13.72 26.3819 13.72 26.3819C14.92 26.4644 15.556 27.5958 15.556 27.5958C16.6 29.3872 18.364 28.8568 19.048 28.574C19.156 27.8079 19.468 27.2893 19.804 26.9947C17.14 26.7001 14.344 25.6865 14.344 21.1962C14.344 19.888 14.8 18.8391 15.58 18.0024C15.46 17.7077 15.04 16.482 15.7 14.891C15.7 14.891 16.708 14.5728 19 16.0931C19.948 15.8338 20.98 15.7042 22 15.7042C23.02 15.7042 24.052 15.8338 25 16.0931C27.292 14.5728 28.3 14.891 28.3 14.891C28.96 16.482 28.54 17.7077 28.42 18.0024C29.2 18.8391 29.656 19.888 29.656 21.1962C29.656 25.6983 26.848 26.6883 24.172 26.9829C24.604 27.3483 25 28.0672 25 29.1632V32.3925C25 32.7107 25.192 33.0878 25.804 32.9817C30.568 31.4025 34 26.9947 34 21.7855C34 20.2378 33.6896 18.7053 33.0866 17.2754C32.4835 15.8455 31.5996 14.5463 30.4853 13.4519C29.371 12.3575 28.0481 11.4894 26.5922 10.8971C25.1363 10.3048 23.5759 10 22 10Z" fill="url(#paint2_linear_107_1543)"/>
<defs>
<linearGradient id="paint0_linear_107_1543" x1="0" y1="0" x2="51.3023" y2="12.139" gradientUnits="userSpaceOnUse">
<stop stop-color="#2E2E2E"/>
<stop offset="0.811667" stop-color="#222222"/>
</linearGradient>
<linearGradient id="paint1_linear_107_1543" x1="0" y1="0" x2="37.8759" y2="47.8478" gradientUnits="userSpaceOnUse">
<stop stop-color="white"/>
<stop offset="0.0001" stop-color="white"/>
<stop offset="1" stop-color="white" stop-opacity="0"/>
</linearGradient>
<linearGradient id="paint2_linear_107_1543" x1="10" y1="10" x2="30.1647" y2="35.9771" gradientUnits="userSpaceOnUse">
<stop stop-color="white"/>
<stop offset="0.0001" stop-color="white"/>
<stop offset="1" stop-color="white" stop-opacity="0"/>
</linearGradient>
</defs>
</svg>
