<svg width="44" height="43" viewBox="0 0 44 43" fill="none" xmlns="http://www.w3.org/2000/svg">
<rect x="0.5" y="0.5" width="43" height="42" rx="21" fill="url(#paint0_linear_107_1546)" stroke="url(#paint1_linear_107_1546)"/>
<path d="M23.028 12C24.153 12.003 24.7239 12.009 25.2169 12.023L25.4109 12.03C25.6349 12.038 25.8559 12.048 26.1229 12.06C27.1868 12.11 27.9128 12.278 28.5497 12.525C29.2097 12.779 29.7657 13.123 30.3216 13.678C30.8301 14.1778 31.2235 14.7825 31.4746 15.4499C31.7216 16.0869 31.8896 16.8129 31.9396 17.8779C31.9516 18.1439 31.9616 18.3649 31.9696 18.5898L31.9756 18.7838C31.9906 19.2758 31.9966 19.8468 31.9986 20.9718L31.9996 21.7178V23.0277C32.002 23.7571 31.9943 24.4865 31.9766 25.2157L31.9706 25.4097C31.9626 25.6347 31.9526 25.8557 31.9406 26.1217C31.8906 27.1866 31.7206 27.9116 31.4746 28.5496C31.2243 29.2174 30.8307 29.8222 30.3216 30.3216C29.8216 30.8299 29.217 31.2233 28.5497 31.4745C27.9128 31.7215 27.1868 31.8895 26.1229 31.9395C25.8856 31.9507 25.6483 31.9607 25.4109 31.9695L25.2169 31.9755C24.7239 31.9895 24.153 31.9965 23.028 31.9985L22.2821 31.9995H20.9731C20.2434 32.0021 19.5137 31.9944 18.7842 31.9765L18.5902 31.9705C18.3529 31.9615 18.1155 31.9512 17.8783 31.9395C16.8143 31.8895 16.0884 31.7215 15.4504 31.4745C14.7831 31.2239 14.1787 30.8304 13.6795 30.3216C13.1706 29.8219 12.7768 29.2172 12.5256 28.5496C12.2786 27.9126 12.1106 27.1866 12.0606 26.1217C12.0494 25.8844 12.0394 25.6471 12.0306 25.4097L12.0256 25.2157C12.0071 24.4865 11.9988 23.7571 12.0006 23.0277V20.9718C11.9978 20.2424 12.0051 19.513 12.0226 18.7838L12.0296 18.5898C12.0376 18.3649 12.0476 18.1439 12.0596 17.8779C12.1096 16.8129 12.2776 16.0879 12.5246 15.4499C12.7757 14.7818 13.1702 14.177 13.6805 13.678C14.1796 13.1694 14.7836 12.776 15.4504 12.525C16.0884 12.278 16.8133 12.11 17.8783 12.06C18.1443 12.048 18.3663 12.038 18.5902 12.03L18.7842 12.024C19.5134 12.0062 20.2428 11.9986 20.9721 12.001L23.028 12ZM22.0001 16.9999C20.6741 16.9999 19.4023 17.5267 18.4647 18.4643C17.5271 19.402 17.0003 20.6737 17.0003 21.9998C17.0003 23.3258 17.5271 24.5976 18.4647 25.5352C19.4023 26.4729 20.6741 26.9996 22.0001 26.9996C23.3261 26.9997 24.5978 26.4729 25.5354 25.5352C26.4731 24.5976 26.9998 23.3258 26.9998 21.9998C26.9998 20.6737 26.4731 19.402 25.5354 18.4643C24.5978 17.5267 23.3261 16.9999 22.0001 16.9999ZM22.0001 18.9998C22.394 18.9998 22.7841 19.0773 23.1481 19.228C23.5121 19.3787 23.8428 19.5996 24.1214 19.8781C24.4 20.1567 24.6211 20.4873 24.7719 20.8513C24.9227 21.2152 25.0003 21.6053 25.0004 21.9993C25.0005 22.3932 24.9229 22.7833 24.7723 23.1473C24.6216 23.5113 24.4006 23.8421 24.1221 24.1207C23.8436 24.3993 23.513 24.6203 23.149 24.7711C22.7851 24.922 22.395 24.9996 22.0011 24.9997C21.2055 24.9997 20.4424 24.6836 19.8799 24.121C19.3173 23.5584 19.0012 22.7954 19.0012 21.9998C19.0012 21.2041 19.3173 20.4411 19.8799 19.8785C20.4424 19.3159 21.2055 18.9998 22.0011 18.9998M27.2508 15.4999C26.9193 15.4999 26.6014 15.6316 26.367 15.866C26.1326 16.1004 26.0009 16.4184 26.0009 16.7499C26.0009 17.0814 26.1326 17.3993 26.367 17.6338C26.6014 17.8682 26.9193 17.9999 27.2508 17.9999C27.5823 17.9999 27.9002 17.8682 28.1346 17.6338C28.369 17.3993 28.5007 17.0814 28.5007 16.7499C28.5007 16.4184 28.369 16.1004 28.1346 15.866C27.9002 15.6316 27.5823 15.4999 27.2508 15.4999Z" fill="url(#paint2_linear_107_1546)"/>
<defs>
<linearGradient id="paint0_linear_107_1546" x1="0" y1="0" x2="51.3023" y2="12.139" gradientUnits="userSpaceOnUse">
<stop stop-color="#2E2E2E"/>
<stop offset="0.811667" stop-color="#222222"/>
</linearGradient>
<linearGradient id="paint1_linear_107_1546" x1="0" y1="0" x2="37.8759" y2="47.8478" gradientUnits="userSpaceOnUse">
<stop stop-color="white"/>
<stop offset="0.0001" stop-color="white"/>
<stop offset="1" stop-color="white" stop-opacity="0"/>
</linearGradient>
<linearGradient id="paint2_linear_107_1546" x1="12" y1="12" x2="29.7055" y2="33.8586" gradientUnits="userSpaceOnUse">
<stop stop-color="white"/>
<stop offset="0.0001" stop-color="white"/>
<stop offset="1" stop-color="white" stop-opacity="0"/>
</linearGradient>
</defs>
</svg>
