<svg width="44" height="44" viewBox="0 0 44 44" fill="none" xmlns="http://www.w3.org/2000/svg">
<rect x="0.5" y="1" width="43" height="42" rx="21" fill="url(#paint0_linear_107_1537)" stroke="url(#paint1_linear_107_1537)"/>
<path d="M22 10.5C20.4241 10.5 18.8637 10.8048 17.4078 11.3971C15.9519 11.9894 14.629 12.8575 13.5147 13.9519C11.2643 16.1621 10 19.1598 10 22.2855C10 27.4947 13.444 31.9143 18.208 33.4817C18.808 33.576 19 33.2107 19 32.8925V30.9007C15.676 31.6078 14.968 29.3215 14.968 29.3215C14.416 27.9543 13.636 27.589 13.636 27.589C12.544 26.8583 13.72 26.8819 13.72 26.8819C14.92 26.9644 15.556 28.0958 15.556 28.0958C16.6 29.8872 18.364 29.3568 19.048 29.074C19.156 28.3079 19.468 27.7893 19.804 27.4947C17.14 27.2001 14.344 26.1865 14.344 21.6962C14.344 20.388 14.8 19.3391 15.58 18.5024C15.46 18.2077 15.04 16.982 15.7 15.391C15.7 15.391 16.708 15.0728 19 16.5931C19.948 16.3338 20.98 16.2042 22 16.2042C23.02 16.2042 24.052 16.3338 25 16.5931C27.292 15.0728 28.3 15.391 28.3 15.391C28.96 16.982 28.54 18.2077 28.42 18.5024C29.2 19.3391 29.656 20.388 29.656 21.6962C29.656 26.1983 26.848 27.1883 24.172 27.4829C24.604 27.8483 25 28.5672 25 29.6632V32.8925C25 33.2107 25.192 33.5878 25.804 33.4817C30.568 31.9025 34 27.4947 34 22.2855C34 20.7378 33.6896 19.2053 33.0866 17.7754C32.4835 16.3455 31.5996 15.0463 30.4853 13.9519C29.371 12.8575 28.0481 11.9894 26.5922 11.3971C25.1363 10.8048 23.5759 10.5 22 10.5Z" fill="url(#paint2_linear_107_1537)"/>
<defs>
<linearGradient id="paint0_linear_107_1537" x1="0" y1="0.5" x2="51.3023" y2="12.639" gradientUnits="userSpaceOnUse">
<stop stop-color="#2E2E2E"/>
<stop offset="0.811667" stop-color="#222222"/>
</linearGradient>
<linearGradient id="paint1_linear_107_1537" x1="0" y1="0.5" x2="37.8759" y2="48.3478" gradientUnits="userSpaceOnUse">
<stop stop-color="white"/>
<stop offset="1" stop-color="white" stop-opacity="0"/>
</linearGradient>
<linearGradient id="paint2_linear_107_1537" x1="10" y1="10.5" x2="30.1647" y2="36.4771" gradientUnits="userSpaceOnUse">
<stop stop-color="white"/>
<stop offset="1" stop-color="white" stop-opacity="0"/>
</linearGradient>
</defs>
</svg>
