<svg width="44" height="44" viewBox="0 0 44 44" fill="none" xmlns="http://www.w3.org/2000/svg">
<rect x="0.5" y="1" width="43" height="42" rx="21" fill="url(#paint0_linear_107_1530)" stroke="url(#paint1_linear_107_1530)"/>
<path d="M23.028 12.5C24.153 12.503 24.7239 12.509 25.2169 12.523L25.4109 12.53C25.6349 12.538 25.8559 12.548 26.1229 12.56C27.1868 12.61 27.9128 12.778 28.5497 13.025C29.2097 13.279 29.7657 13.623 30.3216 14.178C30.8301 14.6778 31.2235 15.2825 31.4746 15.9499C31.7216 16.5869 31.8896 17.3129 31.9396 18.3779C31.9516 18.6439 31.9616 18.8649 31.9696 19.0898L31.9756 19.2838C31.9906 19.7758 31.9966 20.3468 31.9986 21.4718L31.9996 22.2178V23.5277C32.002 24.2571 31.9943 24.9865 31.9766 25.7157L31.9706 25.9097C31.9626 26.1347 31.9526 26.3557 31.9406 26.6217C31.8906 27.6866 31.7206 28.4116 31.4746 29.0496C31.2243 29.7174 30.8307 30.3222 30.3216 30.8216C29.8216 31.3299 29.217 31.7233 28.5497 31.9745C27.9128 32.2215 27.1868 32.3895 26.1229 32.4395C25.8856 32.4507 25.6483 32.4607 25.4109 32.4695L25.2169 32.4755C24.7239 32.4895 24.153 32.4965 23.028 32.4985L22.2821 32.4995H20.9731C20.2434 32.5021 19.5137 32.4944 18.7842 32.4765L18.5902 32.4705C18.3529 32.4615 18.1155 32.4512 17.8783 32.4395C16.8143 32.3895 16.0884 32.2215 15.4504 31.9745C14.7831 31.7239 14.1787 31.3304 13.6795 30.8216C13.1706 30.3219 12.7768 29.7172 12.5256 29.0496C12.2786 28.4126 12.1106 27.6866 12.0606 26.6217C12.0494 26.3844 12.0394 26.1471 12.0306 25.9097L12.0256 25.7157C12.0071 24.9865 11.9988 24.2571 12.0006 23.5277V21.4718C11.9978 20.7424 12.0051 20.013 12.0226 19.2838L12.0296 19.0898C12.0376 18.8649 12.0476 18.6439 12.0596 18.3779C12.1096 17.3129 12.2776 16.5879 12.5246 15.9499C12.7757 15.2818 13.1702 14.677 13.6805 14.178C14.1796 13.6694 14.7836 13.276 15.4504 13.025C16.0884 12.778 16.8133 12.61 17.8783 12.56C18.1443 12.548 18.3663 12.538 18.5902 12.53L18.7842 12.524C19.5134 12.5062 20.2428 12.4986 20.9721 12.501L23.028 12.5ZM22.0001 17.4999C20.6741 17.4999 19.4023 18.0267 18.4647 18.9643C17.5271 19.902 17.0003 21.1737 17.0003 22.4998C17.0003 23.8258 17.5271 25.0976 18.4647 26.0352C19.4023 26.9729 20.6741 27.4996 22.0001 27.4996C23.3261 27.4997 24.5978 26.9729 25.5354 26.0352C26.4731 25.0976 26.9998 23.8258 26.9998 22.4998C26.9998 21.1737 26.4731 19.902 25.5354 18.9643C24.5978 18.0267 23.3261 17.4999 22.0001 17.4999ZM22.0001 19.4998C22.394 19.4998 22.7841 19.5773 23.1481 19.728C23.5121 19.8787 23.8428 20.0996 24.1214 20.3781C24.4 20.6567 24.6211 20.9873 24.7719 21.3513C24.9227 21.7152 25.0003 22.1053 25.0004 22.4993C25.0005 22.8932 24.9229 23.2833 24.7723 23.6473C24.6216 24.0113 24.4006 24.3421 24.1221 24.6207C23.8436 24.8993 23.513 25.1203 23.149 25.2711C22.7851 25.422 22.395 25.4996 22.0011 25.4997C21.2055 25.4997 20.4424 25.1836 19.8799 24.621C19.3173 24.0584 19.0012 23.2954 19.0012 22.4998C19.0012 21.7041 19.3173 20.9411 19.8799 20.3785C20.4424 19.8159 21.2055 19.4998 22.0011 19.4998M27.2508 15.9999C26.9193 15.9999 26.6014 16.1316 26.367 16.366C26.1326 16.6004 26.0009 16.9184 26.0009 17.2499C26.0009 17.5814 26.1326 17.8993 26.367 18.1338C26.6014 18.3682 26.9193 18.4999 27.2508 18.4999C27.5823 18.4999 27.9002 18.3682 28.1346 18.1338C28.369 17.8993 28.5007 17.5814 28.5007 17.2499C28.5007 16.9184 28.369 16.6004 28.1346 16.366C27.9002 16.1316 27.5823 15.9999 27.2508 15.9999Z" fill="url(#paint2_linear_107_1530)"/>
<defs>
<linearGradient id="paint0_linear_107_1530" x1="0" y1="0.5" x2="51.3023" y2="12.639" gradientUnits="userSpaceOnUse">
<stop stop-color="#2E2E2E"/>
<stop offset="0.811667" stop-color="#222222"/>
</linearGradient>
<linearGradient id="paint1_linear_107_1530" x1="0" y1="0.5" x2="37.8759" y2="48.3478" gradientUnits="userSpaceOnUse">
<stop stop-color="white"/>
<stop offset="1" stop-color="white" stop-opacity="0"/>
</linearGradient>
<linearGradient id="paint2_linear_107_1530" x1="12" y1="12.5" x2="29.7055" y2="34.3586" gradientUnits="userSpaceOnUse">
<stop stop-color="white"/>
<stop offset="1" stop-color="white" stop-opacity="0"/>
</linearGradient>
</defs>
</svg>
